<?xml version="1.0" encoding="UTF-8" standalone="no"?>
<!-- Created with Inkscape (http://www.inkscape.org/) -->

<svg
   xmlns:dc="http://purl.org/dc/elements/1.1/"
   xmlns:cc="http://creativecommons.org/ns#"
   xmlns:rdf="http://www.w3.org/1999/02/22-rdf-syntax-ns#"
   xmlns:svg="http://www.w3.org/2000/svg"
   xmlns="http://www.w3.org/2000/svg"
   xmlns:sodipodi="http://sodipodi.sourceforge.net/DTD/sodipodi-0.dtd"
   xmlns:inkscape="http://www.inkscape.org/namespaces/inkscape"
   width="440.79999"
   height="145.7"
   viewBox="0 0 116.62833 38.549793"
   version="1.1"
   id="svg829"
   inkscape:version="0.92.3 (2405546, 2018-03-11)"
   sodipodi:docname="largelogo.svg">
  <defs
     id="defs823" />
  <sodipodi:namedview
     id="base"
     pagecolor="#ffffff"
     bordercolor="#666666"
     borderopacity="1.0"
     inkscape:pageopacity="0.0"
     inkscape:pageshadow="2"
     inkscape:zoom="1.4"
     inkscape:cx="193.74015"
     inkscape:cy="37.806199"
     inkscape:document-units="mm"
     inkscape:current-layer="layer1"
     showgrid="false"
     units="px"
     inkscape:window-width="1920"
     inkscape:window-height="1017"
     inkscape:window-x="-8"
     inkscape:window-y="-8"
     inkscape:window-maximized="1" />
  <metadata
     id="metadata826">
    <rdf:RDF>
      <cc:Work
         rdf:about="">
        <dc:format>image/svg+xml</dc:format>
        <dc:type
           rdf:resource="http://purl.org/dc/dcmitype/StillImage" />
        <dc:title></dc:title>
      </cc:Work>
    </rdf:RDF>
  </metadata>
  <g
     inkscape:label="Layer 1"
     inkscape:groupmode="layer"
     id="layer1"
     transform="translate(0,-258.45017)">
    <path
       style="fill:#fe9a34;stroke-width:0.18381581"
       d="m 12.47603,295.89796 c -2.45775,-0.66093 -4.0707045,-2.14396 -5.9098737,-5.43385 -0.641828,-1.14808 -1.9914712,-3.49362 -2.9992032,-5.2123 -2.69210987,-4.59136 -2.93896367,-5.17728 -3.02025477,-7.16882 -0.0944075,-2.31272 0.2453039,-3.23512 2.75168557,-7.47146 1.1576112,-1.95661 2.6371798,-4.50874 3.2879299,-5.67137 1.8817997,-3.36204 3.7035772,-4.92942 6.3850262,-5.49341 1.211322,-0.25477 13.276536,-0.27721 14.801134,-0.0275 2.069369,0.33891 4.16542,1.61292 5.246502,3.1889 0.290359,0.42328 1.480583,2.42394 2.644939,4.44591 1.164361,2.02198 2.584788,4.46213 3.15651,5.42256 1.386312,2.32887 1.840282,3.83387 1.711756,5.6748 -0.131802,1.88788 -0.46811,2.68411 -2.932497,6.94294 -1.161641,2.00748 -2.594414,4.51849 -3.183948,5.58004 -1.719073,3.09544 -3.392708,4.58446 -5.881483,5.2327 -1.53515,0.39986 -14.564903,0.39245 -16.058223,-0.009 z m 15.888172,-0.91347 c 2.14846,-0.55946 3.740715,-1.87481 5.076431,-4.19361 0.415447,-0.72122 1.844747,-3.17244 3.176226,-5.44716 1.331478,-2.27472 2.570356,-4.50809 2.753057,-4.96302 0.513491,-1.27866 0.583935,-3.53016 0.152895,-4.88693 -0.298755,-0.94039 -2.066818,-4.15154 -6.131206,-11.13548 -1.321421,-2.27063 -3.085603,-3.61416 -5.374613,-4.09309 -1.769304,-0.37018 -13.761588,-0.2243 -15.185695,0.18474 -2.156455,0.61939 -3.7268357,2.05725 -5.2253987,4.78447 -0.4943697,0.8997 -1.8498242,3.27831 -3.0121132,5.28579 -2.680664,4.62997 -2.8584807,5.07755 -2.8584807,7.19516 0,2.09682 0.2052023,2.62629 2.572808,6.63837 1.0074089,1.70712 2.4051326,4.12847 3.1060548,5.38076 1.8833826,3.3649 3.3241028,4.66227 5.8621828,5.27888 0.635131,0.15431 2.982124,0.23005 7.459492,0.24077 5.348678,0.0128 6.731377,-0.0361 7.62836,-0.26965 z m -14.988326,-0.56085 c -1.347752,-0.36059 -2.83826,-1.27375 -3.6541337,-2.23871 -0.7007468,-0.82881 -5.4584672,-8.93583 -6.5725129,-11.19939 -0.5253448,-1.06742 -0.6700265,-1.6038 -0.7437278,-2.75724 -0.1316646,-2.06053 0.2493425,-3.05286 2.9262997,-7.62163 1.2633345,-2.15615 2.6517314,-4.5358 3.0853217,-5.28813 1.1182903,-1.94039 2.018753,-2.84133 3.641956,-3.64392 l 1.388436,-0.6865 6.592956,-0.0566 c 6.986609,-0.06 7.780254,0.007 9.465796,0.7874 1.544757,0.71612 2.542984,1.8912 4.45405,5.24323 0.951042,1.66813 2.169589,3.76238 2.707885,4.65388 1.40298,2.32357 1.999154,3.57292 2.235046,4.68383 0.525557,2.47501 0.234813,3.3028 -3.432452,9.77284 -3.356792,5.92226 -4.184013,7.00568 -5.975173,7.8257 -1.593475,0.72951 -2.610572,0.82059 -9.021972,0.80784 -4.747068,-0.01 -6.309306,-0.0716 -7.097775,-0.28259 z M 23.674622,288.665 c 1.51465,-0.47141 2.568879,-1.13333 3.559022,-2.2346 1.985194,-2.20802 1.783756,-5.21097 -0.486467,-7.25209 -1.095938,-0.98534 -2.124392,-1.49 -3.714575,-1.8227 -0.680827,-0.14245 -1.283282,-0.30442 -1.338795,-0.35993 -0.05552,-0.0555 0.159528,-0.58961 0.477871,-1.18688 0.318345,-0.59727 0.578807,-1.20909 0.578807,-1.3596 0,-0.24978 -1.028709,-0.82964 -1.179149,-0.66467 -0.03546,0.0388 -0.37421,0.69108 -0.75279,1.44932 -0.378576,0.75824 -0.777284,1.43523 -0.886018,1.50443 -0.22575,0.14366 -0.904055,0.0461 -2.261994,-0.32525 -1.047616,-0.28651 -2.634334,-1.56568 -3.129232,-2.5227 -0.977696,-1.89066 0.339689,-4.27841 2.965928,-5.37572 1.071886,-0.44786 3.030722,-0.6436 4.338595,-0.43353 2.421368,0.3889 4.165887,1.56597 4.948134,3.33859 0.211919,0.48022 0.426904,0.87312 0.477741,0.87312 0.05084,0 0.336477,-0.12619 0.634754,-0.28043 0.98549,-0.50962 0.546443,-1.9187 -1.068516,-3.42931 -1.628166,-1.52296 -3.58369,-2.2342 -6.109429,-2.22206 -2.806613,0.0134 -4.770304,0.75292 -6.450072,2.4288 -3.275369,3.26778 -1.439569,7.9726 3.625666,9.29193 0.573043,0.14926 1.086833,0.31631 1.141752,0.37123 0.05492,0.055 -0.12303,0.55432 -0.395452,1.10977 -0.272422,0.55547 -0.495313,1.12926 -0.495313,1.27511 0,0.29217 0.645535,0.7063 0.945245,0.6064 0.10428,-0.0348 0.492602,-0.63974 0.862933,-1.3444 0.430467,-0.81908 0.804865,-1.30569 1.037998,-1.34909 0.765483,-0.14253 2.837321,0.37971 3.787972,0.95482 1.410232,0.85314 2.04777,1.73167 2.149842,2.96253 0.115776,1.39612 -0.03774,1.84183 -0.98219,2.85152 -1.214581,1.29848 -2.661906,1.89643 -4.83183,1.99625 -2.136991,0.0983 -3.576992,-0.25784 -4.991709,-1.23452 -0.907687,-0.62664 -1.688471,-1.68265 -2.053271,-2.77705 -0.106997,-0.321 -1.255651,0.27842 -1.255651,0.65525 0,0.96143 1.48105,2.87365 2.844597,3.67274 2.289847,1.34195 5.347563,1.66 8.005596,0.83272 z"
       id="path819"
       inkscape:connector-curvature="0" />
    <text
       xml:space="preserve"
       style="font-style:normal;font-variant:normal;font-weight:normal;font-stretch:normal;font-size:3.52777767px;line-height:125%;font-family:Comfortaa;-inkscape-font-specification:Comfortaa;letter-spacing:0px;word-spacing:0px;fill:#fe9a34;fill-opacity:1;stroke:none;stroke-width:0.26458332px;stroke-linecap:butt;stroke-linejoin:miter;stroke-opacity:1"
       x="48.532143"
       y="281.55963"
       id="text5095"><tspan
         sodipodi:role="line"
         id="tspan5093"
         x="48.532143"
         y="281.55963"
         style="font-style:normal;font-variant:normal;font-weight:bold;font-stretch:normal;font-size:21.16666603px;font-family:Comfortaa;-inkscape-font-specification:'Comfortaa Bold';fill:#fe9a34;fill-opacity:1;stroke-width:0.26458332px">S W I</tspan></text>
    <text
       xml:space="preserve"
       style="font-style:normal;font-variant:normal;font-weight:normal;font-stretch:normal;font-size:4.93888903px;line-height:125%;font-family:Comfortaa;-inkscape-font-specification:Comfortaa;letter-spacing:0px;word-spacing:0px;fill:#fe9a34;fill-opacity:1;stroke:none;stroke-width:0.26458332px;stroke-linecap:butt;stroke-linejoin:miter;stroke-opacity:1"
       x="38.666965"
       y="292.08624"
       id="text5099"><tspan
         sodipodi:role="line"
         id="tspan5097"
         x="38.666965"
         y="292.08624"
         style="font-style:normal;font-variant:normal;font-weight:bold;font-stretch:normal;font-size:4.76249981px;font-family:Comfortaa;-inkscape-font-specification:'Comfortaa Bold';fill:#fe9a34;fill-opacity:1;stroke-width:0.26458332px">Real-Estate Finance Revolution</tspan></text>
  </g>
</svg>
