<?xml version="1.0" encoding="UTF-8" standalone="no"?>
<!-- Created with Inkscape (http://www.inkscape.org/) -->

<svg
   xmlns:dc="http://purl.org/dc/elements/1.1/"
   xmlns:cc="http://creativecommons.org/ns#"
   xmlns:rdf="http://www.w3.org/1999/02/22-rdf-syntax-ns#"
   xmlns:svg="http://www.w3.org/2000/svg"
   xmlns="http://www.w3.org/2000/svg"
   xmlns:xlink="http://www.w3.org/1999/xlink"
   xmlns:sodipodi="http://sodipodi.sourceforge.net/DTD/sodipodi-0.dtd"
   xmlns:inkscape="http://www.inkscape.org/namespaces/inkscape"
   width="418"
   height="141"
   viewBox="0 0 110.59583 37.306252"
   version="1.1"
   id="svg829"
   inkscape:version="0.92.3 (2405546, 2018-03-11)"
   sodipodi:docname="whitelogo.svg">
  <defs
     id="defs823">
    <clipPath
       id="SVGID_2_">
      <use
         height="100%"
         width="100%"
         y="0"
         x="0"
         style="overflow:visible"
         xlink:href="#SVGID_1_"
         overflow="visible"
         id="use9" />
    </clipPath>
    <linearGradient
       id="SVGID_3_"
       gradientUnits="userSpaceOnUse"
       x1="18.421"
       y1="-46.108002"
       x2="119.299"
       y2="58.597"
       gradientTransform="matrix(1,0.002,-0.002,1,-1.904,41.212)">
      <stop
         offset="0"
         stop-color="#F9F9F9"
         id="stop12" />
      <stop
         offset="1"
         stop-color="#D3D3D3"
         id="stop14" />
    </linearGradient>
    <linearGradient
       id="SVGID_4_"
       gradientUnits="userSpaceOnUse"
       x1="98.087997"
       y1="78.516998"
       x2="9.467"
       y2="-15.014"
       gradientTransform="matrix(1,0.002,-0.002,1,-1.904,41.212)">
      <stop
         offset="0"
         stop-color="#F9F9F9"
         id="stop19" />
      <stop
         offset="1"
         stop-color="#D3D3D3"
         id="stop21" />
    </linearGradient>
    <radialGradient
       id="SVGID_7_"
       cx="5.816"
       cy="-10.789"
       r="37.438"
       gradientTransform="matrix(1,0.002,-0.002,1,-1.904,41.212)"
       gradientUnits="userSpaceOnUse">
      <stop
         offset="0"
         stop-color="#1D1D1B"
         id="stop41" />
      <stop
         offset=".381"
         stop-color="#1F1F1D"
         stop-opacity=".619"
         id="stop43" />
      <stop
         offset=".518"
         stop-color="#262624"
         stop-opacity=".482"
         id="stop45" />
      <stop
         offset=".616"
         stop-color="#31312F"
         stop-opacity=".384"
         id="stop47" />
      <stop
         offset=".696"
         stop-color="#424240"
         stop-opacity=".304"
         id="stop49" />
      <stop
         offset=".763"
         stop-color="#585856"
         stop-opacity=".237"
         id="stop51" />
      <stop
         offset=".823"
         stop-color="#737372"
         stop-opacity=".177"
         id="stop53" />
      <stop
         offset=".878"
         stop-color="#939392"
         stop-opacity=".122"
         id="stop55" />
      <stop
         offset=".928"
         stop-color="#B8B8B8"
         stop-opacity=".072"
         id="stop57" />
      <stop
         offset=".972"
         stop-color="#E1E1E1"
         stop-opacity=".028"
         id="stop59" />
      <stop
         offset="1"
         stop-color="#fff"
         stop-opacity="0"
         id="stop61" />
    </radialGradient>
    <mask
       maskUnits="userSpaceOnUse"
       x="-33.5"
       y="-7"
       width="74.9"
       height="74.9"
       id="SVGID_5_">
      <g
         class="st4"
         id="g38">
        <linearGradient
           id="SVGID_6_"
           gradientUnits="userSpaceOnUse"
           x1="-18.254"
           y1="-39.800999"
           x2="148.886"
           y2="127.339"
           gradientTransform="matrix(1,0.002,-0.002,1,-1.904,41.212)">
          <stop
             offset="0"
             stop-color="#00C6FF"
             id="stop31" />
          <stop
             offset="1"
             stop-color="#0072FF"
             id="stop33" />
        </linearGradient>
        <path
           inkscape:connector-curvature="0"
           class="st5"
           d="M 59.2,129.6 8.6,96.7 8.8,24.1 c 0,0 -8.8,12 -8.9,35.2 l -0.1,38.1 c 0,2.6 1.2,4.9 3.4,6.3 l 52.3,33.9 c 1.2,0.8 2.5,1.1 3.8,1.1 1.3,0 2.7,-0.4 3.8,-1.1 l 52.4,-33.7 c 2.1,-1.4 3.4,-3.7 3.4,-6.2 L 119,61.9 c -0.1,23.2 -8.9,34.3 -8.9,34.3 z"
           id="path36" />
      </g>
    </mask>
    <filter
       id="Adobe_OpacityMaskFilter"
       filterUnits="userSpaceOnUse"
       x="-33.5"
       y="-7"
       width="74.900002"
       height="74.900002">
      <feColorMatrix
         values="1 0 0 0 0 0 1 0 0 0 0 0 1 0 0 0 0 0 1 0"
         id="feColorMatrix26" />
    </filter>
    <linearGradient
       id="linearGradient968"
       gradientUnits="userSpaceOnUse"
       x1="-18.254"
       y1="-39.800999"
       x2="148.886"
       y2="127.339"
       gradientTransform="matrix(1,0.002,-0.002,1,-1.904,41.212)">
      <stop
         offset="0"
         stop-color="#00C6FF"
         id="stop964" />
      <stop
         offset="1"
         stop-color="#0072FF"
         id="stop966" />
    </linearGradient>
    <radialGradient
       id="SVGID_10_"
       cx="116.842"
       cy="55.445999"
       r="37.438"
       gradientTransform="matrix(1,0.002,-0.002,1,-1.904,41.212)"
       gradientUnits="userSpaceOnUse">
      <stop
         offset="0"
         stop-color="#1D1D1B"
         id="stop81" />
      <stop
         offset=".381"
         stop-color="#1F1F1D"
         stop-opacity=".619"
         id="stop83" />
      <stop
         offset=".518"
         stop-color="#262624"
         stop-opacity=".482"
         id="stop85" />
      <stop
         offset=".616"
         stop-color="#31312F"
         stop-opacity=".384"
         id="stop87" />
      <stop
         offset=".696"
         stop-color="#424240"
         stop-opacity=".304"
         id="stop89" />
      <stop
         offset=".763"
         stop-color="#585856"
         stop-opacity=".237"
         id="stop91" />
      <stop
         offset=".823"
         stop-color="#737372"
         stop-opacity=".177"
         id="stop93" />
      <stop
         offset=".878"
         stop-color="#939392"
         stop-opacity=".122"
         id="stop95" />
      <stop
         offset=".928"
         stop-color="#B8B8B8"
         stop-opacity=".072"
         id="stop97" />
      <stop
         offset=".972"
         stop-color="#E1E1E1"
         stop-opacity=".028"
         id="stop99" />
      <stop
         offset="1"
         stop-color="#fff"
         stop-opacity="0"
         id="stop101" />
    </radialGradient>
    <mask
       maskUnits="userSpaceOnUse"
       x="77.4"
       y="59.5"
       width="74.9"
       height="74.9"
       id="SVGID_8_">
      <g
         class="st7"
         id="g78">
        <linearGradient
           id="SVGID_9_"
           gradientUnits="userSpaceOnUse"
           x1="2.5209999"
           y1="-60.417999"
           x2="168.979"
           y2="106.04"
           gradientTransform="matrix(1,0.002,-0.002,1,-1.904,41.212)">
          <stop
             offset="0"
             stop-color="#00C6FF"
             id="stop71" />
          <stop
             offset="1"
             stop-color="#0072FF"
             id="stop73" />
        </linearGradient>
        <path
           inkscape:connector-curvature="0"
           class="st8"
           d="m 113.9,16.3 -4.8,-1.5 c -2.2,-0.7 -4.4,-0.3 -6.3,1 -1.8,1.3 -3,3.5 -3,5.8 h -0.2 v -4.3 c 0,-3.3 -2.1,-6.2 -5.2,-7.1 L 89.7,8.8 c -2.1,-0.6 -4.4,-0.2 -6.2,1.1 -1.9,1.4 -3,3.6 -3,5.9 v 1.8 l -2.2,-0.5 v -6.4 c 0,-3.3 -2,-6.1 -5.1,-7.1 L 61.6,0 C 60.2,-0.4 58.8,-0.4 57.4,0 L 46,3.5 c -3.1,0.9 -5.1,3.8 -5.1,7.1 V 17 l -2.2,0.5 v -1.8 c 0,-2.3 -1.1,-4.5 -3,-5.9 C 33.9,8.5 31.6,8.1 29.5,8.7 l -4.8,1.4 c -3.1,0.9 -5.2,3.8 -5.2,7.1 v 4.3 h -0.2 c 0,-2.3 -1.2,-4.5 -3,-5.9 C 14.5,14.3 12.2,13.9 10,14.5 L 5.2,16 C 2,17 0,19.8 0,23.1 L -0.1,59.3 C 0,36.1 8.8,24.1 8.8,24.1 l 1.7,-0.5 c 0.1,2.1 1.1,4.1 2.7,5.5 1.7,1.4 3.8,1.9 5.9,1.4 l 3.4,-0.7 c 3.3,-0.7 5.8,-3.7 5.8,-7.2 v -4.4 l 1.6,-0.5 v 1.6 c 0,2.3 1,4.3 2.8,5.7 1.7,1.3 3.8,1.9 5.9,1.4 l 5.3,-1.1 c 3.3,-0.7 5.8,-3.7 5.8,-7.2 v -6.5 l 9.9,-3 9.9,3.1 v 6.5 c 0,3.5 2.4,6.6 5.7,7.3 l 5.3,1.1 c 2.1,0.4 4.2,-0.1 5.9,-1.4 1.7,-1.4 2.8,-3.5 2.8,-5.7 v -1.6 l 1.6,0.5 v 4.4 c 0,3.5 2.4,6.5 5.7,7.3 l 3.4,0.7 c 2.1,0.4 4.2,-0.1 5.9,-1.4 1.7,-1.3 2.6,-3.3 2.8,-5.4 l 1.7,0.5 -0.2,71.8 c 0,0 8.8,-11.1 8.9,-34.3 l 0.1,-38.5 c 0,-3.4 -2.1,-6.2 -5.2,-7.2 z m -5.3,5.6 z"
           id="path76" />
      </g>
    </mask>
    <filter
       id="Adobe_OpacityMaskFilter_1_"
       filterUnits="userSpaceOnUse"
       x="77.400002"
       y="59.5"
       width="74.900002"
       height="74.900002">
      <feColorMatrix
         values="1 0 0 0 0 0 1 0 0 0 0 0 1 0 0 0 0 0 1 0"
         id="feColorMatrix66" />
    </filter>
    <linearGradient
       id="linearGradient994"
       gradientUnits="userSpaceOnUse"
       x1="2.5209999"
       y1="-60.417999"
       x2="168.979"
       y2="106.04"
       gradientTransform="matrix(1,0.002,-0.002,1,-1.904,41.212)">
      <stop
         offset="0"
         stop-color="#00C6FF"
         id="stop990" />
      <stop
         offset="1"
         stop-color="#0072FF"
         id="stop992" />
    </linearGradient>
    <path
       inkscape:connector-curvature="0"
       id="SVGID_1_"
       d="m 113.9,16.3 -4.8,-1.5 c -2.2,-0.7 -4.4,-0.3 -6.3,1 -1.8,1.3 -3,3.5 -3,5.8 h -0.2 v -4.3 c 0,-3.3 -2.1,-6.2 -5.2,-7.1 L 89.7,8.8 c -2.1,-0.6 -4.4,-0.2 -6.2,1.1 -1.9,1.4 -3,3.6 -3,5.9 v 1.8 l -2.2,-0.5 v -6.4 c 0,-3.3 -2,-6.1 -5.1,-7.1 L 61.6,0 C 60.2,-0.4 58.8,-0.4 57.4,0 L 45.9,3.5 c -3.1,0.9 -5.1,3.8 -5.1,7.1 V 17 l -2.2,0.5 v -1.8 c 0,-2.3 -1.1,-4.5 -3,-5.9 C 33.8,8.5 31.5,8.1 29.4,8.7 l -4.8,1.4 c -3.1,0.9 -5.2,3.8 -5.2,7.1 v 4.3 H 19.2 C 19.2,19.2 18,17 16.2,15.6 14.4,14.3 12.1,13.9 9.9,14.5 L 5.1,16 c -3.1,1 -5.2,3.8 -5.2,7.1 l -0.1,36.2 -0.1,38.1 c 0,2.6 1.2,4.9 3.4,6.3 l 52.3,33.9 c 1.2,0.8 2.5,1.1 3.8,1.1 1.3,0 2.7,-0.4 3.8,-1.1 l 52.4,-33.7 c 2.1,-1.4 3.4,-3.7 3.4,-6.2 l 0.1,-35.8 0.1,-38.5 c 0,-3.3 -2,-6.1 -5.1,-7.1 z M 59.2,129.6 8.5,96.7 8.7,24.1 10.4,23.6 c 0.1,2.1 1.1,4.1 2.7,5.5 1.7,1.4 3.8,1.9 5.9,1.4 l 3.4,-0.7 c 3.3,-0.7 5.8,-3.7 5.8,-7.2 v -4.4 l 1.6,-0.5 v 1.6 c 0,2.3 1,4.3 2.8,5.7 1.7,1.3 3.8,1.9 5.9,1.4 l 5.3,-1.1 c 3.3,-0.7 5.8,-3.7 5.8,-7.2 v -6.5 l 9.9,-3 9.9,3.1 v 6.5 c 0,3.5 2.4,6.6 5.7,7.3 l 5.3,1.1 c 2.1,0.4 4.2,-0.1 5.9,-1.4 1.7,-1.4 2.8,-3.5 2.8,-5.7 v -1.6 l 1.6,0.5 v 4.4 c 0,3.5 2.4,6.5 5.7,7.3 l 3.4,0.7 c 2.1,0.4 4.2,-0.1 5.9,-1.4 1.7,-1.3 2.6,-3.3 2.8,-5.4 l 1.7,0.5 -0.2,71.7 z" />
    <filter
       id="filter1019"
       filterUnits="userSpaceOnUse"
       x="-33.5"
       y="-7"
       width="74.900002"
       height="74.900002">
      <feColorMatrix
         values="1 0 0 0 0 0 1 0 0 0 0 0 1 0 0 0 0 0 1 0"
         id="feColorMatrix1017" />
    </filter>
    <filter
       id="filter1061"
       filterUnits="userSpaceOnUse"
       x="77.400002"
       y="59.5"
       width="74.900002"
       height="74.900002">
      <feColorMatrix
         values="1 0 0 0 0 0 1 0 0 0 0 0 1 0 0 0 0 0 1 0"
         id="feColorMatrix1059" />
    </filter>
  </defs>
  <sodipodi:namedview
     id="base"
     pagecolor="#ffffff"
     bordercolor="#666666"
     borderopacity="1.0"
     inkscape:pageopacity="0.0"
     inkscape:pageshadow="2"
     inkscape:zoom="1.4"
     inkscape:cx="190.25037"
     inkscape:cy="37.806199"
     inkscape:document-units="mm"
     inkscape:current-layer="layer1"
     showgrid="false"
     units="px"
     inkscape:window-width="1124"
     inkscape:window-height="1009"
     inkscape:window-x="63"
     inkscape:window-y="3"
     inkscape:window-maximized="0" />
  <metadata
     id="metadata826">
    <rdf:RDF>
      <cc:Work
         rdf:about="">
        <dc:format>image/svg+xml</dc:format>
        <dc:type
           rdf:resource="http://purl.org/dc/dcmitype/StillImage" />
        <dc:title></dc:title>
      </cc:Work>
    </rdf:RDF>
  </metadata>
  <g
     inkscape:label="Layer 1"
     inkscape:groupmode="layer"
     id="layer1"
     transform="translate(0,-259.69371)">
    <path
       style="fill:#ffffff;stroke-width:0.17295229"
       d="m 11.894454,295.353 c -2.3124957,-0.62186 -3.8301248,-2.01725 -5.5605991,-5.11271 -0.603896,-1.08022 -1.8737753,-3.28715 -2.8219503,-4.90425 -2.53300617,-4.32001 -2.76527097,-4.8713 -2.84175777,-6.74514 -0.088828,-2.17604 0.2308065,-3.04393 2.58906097,-7.0299 1.0891964,-1.84097 2.4813224,-4.24228 3.0936132,-5.33619 1.7705853,-3.16335 3.4846963,-4.6381 6.007671,-5.16876 1.139732,-0.2397 12.491892,-0.26082 13.926387,-0.0259 1.947069,0.31887 3.919243,1.51759 4.936433,3.00043 0.273199,0.39826 1.39308,2.28068 2.488624,4.18316 1.095547,1.90248 2.432026,4.19842 2.969959,5.10209 1.304381,2.19123 1.731522,3.60728 1.610592,5.33941 -0.124012,1.77631 -0.440445,2.52548 -2.759186,6.53262 -1.092989,1.88883 -2.441085,4.25144 -2.995777,5.25026 -1.617476,2.91249 -3.1922,4.31351 -5.533887,4.92344 -1.444423,0.37623 -13.704118,0.36926 -15.109183,-0.009 z m 14.949181,-0.85948 c 2.021486,-0.52639 3.519639,-1.76401 4.776414,-3.94577 0.390895,-0.67859 1.735723,-2.98495 2.988511,-5.12523 1.252788,-2.14028 2.418449,-4.24166 2.590352,-4.6697 0.483143,-1.20309 0.549424,-3.32154 0.143859,-4.59812 -0.281099,-0.88481 -1.94467,-3.90618 -5.768852,-10.47737 -1.243325,-2.13644 -2.903244,-3.40057 -5.056974,-3.85119 -1.664737,-0.3483 -12.948278,-0.21104 -14.28822,0.17382 -2.029008,0.58279 -3.506579,1.93567 -4.9165769,4.5017 -0.4651524,0.84653 -1.7404996,3.08457 -2.8340973,4.97341 -2.5222368,4.35634 -2.6895445,4.77746 -2.6895445,6.76993 0,1.97289 0.1930748,2.47107 2.4207551,6.24604 0.947871,1.60622 2.2629892,3.88447 2.9224869,5.06275 1.7720747,3.16604 3.1276477,4.38673 5.5157277,4.96691 0.597594,0.14519 2.80588,0.21644 7.018636,0.22653 5.032571,0.012 6.333552,-0.034 7.177523,-0.25371 z m -14.102515,-0.5277 c -1.2681,-0.33928 -2.670519,-1.19848 -3.4381744,-2.10641 -0.6593325,-0.77983 -5.1358717,-8.40772 -6.1840772,-10.5375 -0.494297,-1.00434 -0.630428,-1.50902 -0.6997736,-2.59429 -0.1238832,-1.93876 0.2346064,-2.87244 2.7533554,-7.17119 1.1886715,-2.02872 2.4950141,-4.26774 2.9029793,-4.9756 1.0521991,-1.82572 1.8994448,-2.67341 3.4267155,-3.42857 l 1.30638,-0.64593 6.203312,-0.0533 c 6.573701,-0.0565 7.32044,0.007 8.906367,0.74086 1.453463,0.67381 2.392694,1.77943 4.190816,4.93336 0.894835,1.56954 2.041366,3.54002 2.547849,4.37884 1.320064,2.18624 1.881004,3.36176 2.102955,4.40701 0.494496,2.32874 0.220935,3.10761 -3.229595,9.19527 -3.158405,5.57225 -3.936737,6.59164 -5.622039,7.3632 -1.499301,0.68639 -2.456287,0.77209 -8.488774,0.76009 -4.466516,-0.01 -5.936426,-0.0674 -6.678296,-0.26588 z m 9.69009,-5.41831 c 1.425134,-0.44355 2.417058,-1.06635 3.348683,-2.10253 1.867869,-2.07753 1.678336,-4.90301 -0.457716,-6.82349 -1.031169,-0.92711 -1.998841,-1.40194 -3.495044,-1.71498 -0.64059,-0.13404 -1.20744,-0.28643 -1.259672,-0.33866 -0.05223,-0.0522 0.150099,-0.55476 0.449629,-1.11674 0.299531,-0.56197 0.544599,-1.13763 0.544599,-1.27925 0,-0.23502 -0.967912,-0.7806 -1.109461,-0.62538 -0.03337,0.0365 -0.352095,0.65023 -0.7083,1.36366 -0.356203,0.71343 -0.731347,1.35041 -0.833655,1.41552 -0.212408,0.13517 -0.850625,0.0434 -2.12831,-0.30602 -0.985701,-0.26959 -2.478645,-1.47315 -2.944294,-2.37361 -0.919914,-1.77893 0.319614,-4.02556 2.790641,-5.05802 1.008538,-0.4214 2.851607,-0.60556 4.082184,-0.40791 2.278265,0.36592 3.919684,1.47343 4.655699,3.14128 0.199395,0.45184 0.401674,0.82152 0.449507,0.82152 0.04783,0 0.316592,-0.11873 0.597241,-0.26385 0.927247,-0.47951 0.514147,-1.80531 -1.005367,-3.22664 -1.531942,-1.43296 -3.371894,-2.10217 -5.748362,-2.09074 -2.640743,0.0126 -4.488379,0.70842 -6.068873,2.28525 -3.081795,3.07466 -1.354491,7.50143 3.411389,8.74279 0.539177,0.14043 1.022601,0.29761 1.074275,0.34928 0.05167,0.0518 -0.11576,0.52156 -0.372081,1.04419 -0.256322,0.52264 -0.46604,1.06252 -0.46604,1.19974 0,0.27491 0.607383,0.66456 0.889381,0.57057 0.09812,-0.0328 0.463489,-0.60194 0.811933,-1.26495 0.405027,-0.77067 0.757298,-1.22852 0.976653,-1.26936 0.720243,-0.1341 2.669636,0.35727 3.564103,0.89839 1.326887,0.80273 1.926747,1.62933 2.022786,2.78744 0.108934,1.31362 -0.03551,1.73299 -0.924142,2.683 -1.1428,1.22174 -2.504588,1.78436 -4.54627,1.87827 -2.010694,0.0924 -3.365591,-0.24259 -4.696698,-1.16155 -0.854043,-0.58961 -1.588682,-1.58321 -1.931923,-2.61293 -0.100673,-0.30203 -1.181442,0.26197 -1.181442,0.61652 0,0.90461 1.39352,2.70382 2.676481,3.45569 2.154517,1.26264 5.031523,1.56189 7.532466,0.7835 z"
       id="path819"
       inkscape:connector-curvature="0" />
    <text
       xml:space="preserve"
       style="font-style:normal;font-variant:normal;font-weight:normal;font-stretch:normal;font-size:3.31928611px;line-height:125%;font-family:Comfortaa;-inkscape-font-specification:Comfortaa;letter-spacing:0px;word-spacing:0px;fill:#ffffff;fill-opacity:1;stroke:none;stroke-width:0.24894646px;stroke-linecap:butt;stroke-linejoin:miter;stroke-opacity:1;"
       x="45.84494"
       y="281.07175"
       id="text5095"><tspan
         sodipodi:role="line"
         id="tspan5093"
         x="45.84494"
         y="281.07175"
         style="font-style:normal;font-variant:normal;font-weight:bold;font-stretch:normal;font-size:19.91571617px;font-family:Comfortaa;-inkscape-font-specification:'Comfortaa Bold';fill:#ffffff;fill-opacity:1;stroke-width:0.24894646px;">S W I</tspan></text>
    <text
       xml:space="preserve"
       style="font-style:normal;font-variant:normal;font-weight:normal;font-stretch:normal;font-size:4.64700079px;line-height:125%;font-family:Comfortaa;-inkscape-font-specification:Comfortaa;letter-spacing:0px;word-spacing:0px;fill:#ffffff;fill-opacity:1;stroke:none;stroke-width:0.24894646px;stroke-linecap:butt;stroke-linejoin:miter;stroke-opacity:1;"
       x="36.716377"
       y="290.91867"
       id="text5099"><tspan
         sodipodi:role="line"
         id="tspan5097"
         x="36.716377"
         y="290.91867"
         style="font-style:normal;font-variant:normal;font-weight:bold;font-stretch:normal;font-size:4.48103571px;font-family:Comfortaa;-inkscape-font-specification:'Comfortaa Bold';fill:#ffffff;fill-opacity:1;stroke-width:0.24894646px;">Real-Estate Finance Revolution</tspan></text>
  </g>
</svg>
